<svg width="41" height="41" viewBox="0 0 41 41" fill="none" xmlns="http://www.w3.org/2000/svg">
<path d="M34.7082 7.09914C32.095 5.90009 29.2928 5.01669 26.3628 4.51072C26.3095 4.50096 26.2562 4.52536 26.2287 4.57417C25.8683 5.21516 25.4691 6.05139 25.1895 6.70866C22.0382 6.23687 18.903 6.23687 15.8163 6.70866C15.5367 6.03678 15.123 5.21516 14.761 4.57417C14.7335 4.52699 14.6802 4.50259 14.6268 4.51072C11.6985 5.01507 8.89625 5.89848 6.28143 7.09914C6.25879 7.1089 6.23939 7.12518 6.22651 7.14632C0.911211 15.0873 -0.544873 22.833 0.169433 30.4828C0.172665 30.5202 0.193674 30.556 0.222763 30.5787C3.72965 33.1541 7.12667 34.7176 10.4606 35.7539C10.514 35.7702 10.5705 35.7507 10.6044 35.7068C11.3931 34.6298 12.0961 33.4942 12.6989 32.3C12.7344 32.2301 12.7005 32.1471 12.6278 32.1194C11.5127 31.6964 10.4509 31.1807 9.42954 30.595C9.34875 30.5479 9.34228 30.4323 9.4166 30.377C9.63154 30.2159 9.84653 30.0483 10.0518 29.8791C10.0889 29.8483 10.1406 29.8417 10.1843 29.8612C16.8942 32.9248 24.1585 32.9248 30.7892 29.8612C30.8329 29.8401 30.8846 29.8466 30.9234 29.8775C31.1286 30.0467 31.3436 30.2159 31.5601 30.377C31.6344 30.4323 31.6296 30.5479 31.5488 30.595C30.5274 31.1921 29.4657 31.6964 28.349 32.1178C28.2763 32.1455 28.2439 32.2301 28.2795 32.3C28.8952 33.4925 29.5982 34.6281 30.3723 35.7051C30.4046 35.7507 30.4628 35.7702 30.5161 35.7539C33.8662 34.7176 37.2632 33.1541 40.7701 30.5787C40.8008 30.556 40.8202 30.5218 40.8235 30.4844C41.6783 21.6405 39.3916 13.9582 34.7615 7.14794C34.7502 7.12518 34.7309 7.1089 34.7082 7.09914ZM13.7009 25.8249C11.6807 25.8249 10.0162 23.9702 10.0162 21.6925C10.0162 19.4148 11.6484 17.5602 13.7009 17.5602C15.7694 17.5602 17.4178 19.4311 17.3855 21.6925C17.3855 23.9702 15.7532 25.8249 13.7009 25.8249ZM27.3244 25.8249C25.3043 25.8249 23.6397 23.9702 23.6397 21.6925C23.6397 19.4148 25.2719 17.5602 27.3244 17.5602C29.393 17.5602 31.0413 19.4311 31.0091 21.6925C31.0091 23.9702 29.393 25.8249 27.3244 25.8249Z" fill="white"/>
</svg>
