<svg width="255" height="41" viewBox="0 0 255 41" fill="none" xmlns="http://www.w3.org/2000/svg">
<path fill-rule="evenodd" clip-rule="evenodd" d="M30.1612 29.5173C27.0635 29.5173 25.7104 26.8225 25.7104 23.8322C25.7104 20.8414 27.0635 18.1834 30.1612 18.1834C33.1524 18.1834 34.541 20.6939 34.541 23.8322C34.541 26.97 33.1524 29.5173 30.1612 29.5173ZM25.7104 16.0791V14.3434H20.9033V40.7046H25.8886V31.5853H26.8145C27.7758 32.9143 29.2357 33.7998 31.7634 33.7998C36.5709 33.7998 39.5258 29.6285 39.5258 23.8322C39.5258 18.1094 36.6064 13.8636 31.7634 13.8636C29.1998 13.8636 27.6331 14.7868 26.6363 16.0791H25.7104ZM47.4017 33.32H42.4164V6.47943H47.4017V33.32ZM62.3175 25.715V24.5335H58.4008C56.2645 24.5335 54.9823 25.3455 54.9823 27.0807C54.9823 28.816 56.1927 29.702 58.2226 29.702C60.6439 29.702 62.3175 28.078 62.3175 25.715ZM62.5311 31.6955H61.6057C60.5016 33.025 58.899 33.7998 56.4777 33.7998C52.3474 33.7998 49.9975 30.8468 49.9975 27.487C49.9975 24.5335 52.0269 21.1737 57.4395 21.1737H62.3175V20.6939C62.3175 18.7367 61.2489 17.7404 59.0771 17.7404C57.0831 17.7404 56.1218 18.4789 55.9795 19.7711H51.0302C51.1365 16.1159 54.4123 13.8636 58.8281 13.8636C63.7774 13.8636 67.1246 15.8939 67.1246 20.9894V33.3205H62.5311V31.6955ZM77.74 17.8507C79.3422 17.8507 80.4462 18.2569 80.6953 19.5492H85.6451C85.2529 16.1526 82.4757 13.8636 77.8827 13.8636C72.4702 13.8636 70.0843 16.5584 70.0843 19.8079C70.0843 23.0565 72.1138 24.4967 74.9982 25.0505L78.559 25.641C80.3749 25.9732 81.1939 26.453 81.1939 27.7457C81.1939 29.1115 80.019 29.8128 78.0249 29.8128C75.9241 29.8128 74.6423 29.0743 74.3928 27.339H69.4434C69.8348 31.2898 72.5056 33.7998 78.0604 33.7998C83.437 33.7998 86.1788 30.81 86.1788 27.6345C86.1788 23.8322 83.7929 22.0965 80.3394 21.5427L77.0282 21.0262C75.7814 20.7679 75.0696 20.5092 75.0696 19.4756C75.0696 18.3309 76.2091 17.8507 77.74 17.8507ZM116.1 21.3584V33.3205H111.115V22.3552C111.115 19.8447 110.332 18.4421 108.338 18.4421C106.059 18.4421 104.991 20.2504 104.991 22.7242V33.3205H100.006V22.3552C100.006 19.8814 99.2225 18.4421 97.2284 18.4421C94.8426 18.4421 93.8458 20.5827 93.8458 23.1309V33.3205H88.8605V14.3434H93.6676V16.0791H94.5935C95.4839 14.6021 97.0148 13.8636 99.1511 13.8636C101.323 13.8636 102.854 14.6021 103.816 16.0791H104.742C105.809 14.6021 107.483 13.8636 109.727 13.8636C114.106 13.8636 116.1 16.7804 116.1 21.3584ZM130.872 24.5335V25.715C130.872 28.078 129.199 29.702 126.777 29.702C124.747 29.702 123.537 28.816 123.537 27.0807C123.537 25.3455 124.819 24.5335 126.956 24.5335H130.872ZM130.16 31.6955H131.086V33.3205H135.679V20.9894C135.679 15.8939 132.332 13.8636 127.383 13.8636C122.967 13.8636 119.691 16.1159 119.585 19.7711H124.534C124.677 18.4789 125.638 17.7404 127.632 17.7404C129.804 17.7404 130.872 18.7367 130.872 20.6939V21.1737H125.994C120.582 21.1737 118.552 24.5335 118.552 27.487C118.552 30.8468 120.902 33.7998 125.032 33.7998C127.454 33.7998 129.056 33.025 130.16 31.6955Z" fill="white"/>
<path fill-rule="evenodd" clip-rule="evenodd" d="M13.75 7.04735C13.75 10.9391 10.6717 14.094 6.875 14.094C3.07787 14.094 0 10.9391 0 7.04735C0 3.15517 3.07787 0.000244141 6.875 0.000244141C10.6717 0.000244141 13.75 3.15517 13.75 7.04735Z" fill="#FE453D"/>
<path d="M143.452 33.3124V16.8639H140.53V14.3589H143.452V12.7474C143.452 10.6336 144.039 8.98704 145.212 7.80756C146.397 6.62807 148.066 6.03833 150.22 6.03833C151.496 6.03833 153.108 6.39451 155.056 7.10687L154.526 9.83954C153.102 9.25564 151.746 8.96368 150.459 8.96368C149.103 8.96368 148.123 9.27899 147.52 9.90961C146.927 10.5285 146.631 11.4628 146.631 12.7123V14.3589H150.408V16.8639H146.631V33.3124H143.452ZM156.628 33.3124H153.45V14.3589H156.628V33.3124Z" fill="white"/>
<path d="M164.763 14.3589L164.866 16.7413C166.278 14.9195 168.124 14.0086 170.403 14.0086C174.311 14.0086 176.282 16.2683 176.316 20.7877V33.3124H173.154V20.7702C173.143 19.4039 172.835 18.3937 172.231 17.7397C171.639 17.0858 170.71 16.7588 169.446 16.7588C168.42 16.7588 167.52 17.0391 166.746 17.5996C165.971 18.1602 165.367 18.8959 164.934 19.8068V33.3124H161.772V14.3589H164.763Z" fill="white"/>
<path d="M192.5 33.3124C192.318 32.9387 192.17 32.2731 192.056 31.3155C190.586 32.8804 188.831 33.6628 186.792 33.6628C184.969 33.6628 183.471 33.1373 182.297 32.0862C181.135 31.0235 180.554 29.6806 180.554 28.0573C180.554 26.0837 181.283 24.5539 182.742 23.4678C184.211 22.3701 186.274 21.8212 188.928 21.8212H192.004V20.3323C192.004 19.1995 191.674 18.3003 191.013 17.6346C190.352 16.9573 189.378 16.6187 188.091 16.6187C186.963 16.6187 186.017 16.9106 185.254 17.4945C184.491 18.0784 184.109 18.7849 184.109 19.6141H180.93C180.93 18.6682 181.255 17.7573 181.904 16.8814C182.565 15.9939 183.454 15.2932 184.57 14.7794C185.698 14.2655 186.934 14.0086 188.279 14.0086C190.409 14.0086 192.078 14.5575 193.286 15.6552C194.494 16.7413 195.12 18.2419 195.166 20.1571V28.8806C195.166 30.6206 195.382 32.0045 195.815 33.0322V33.3124H192.5ZM187.253 30.8425C188.245 30.8425 189.185 30.5798 190.073 30.0543C190.962 29.5287 191.606 28.8456 192.004 28.0048V24.116H189.526C185.653 24.116 183.716 25.2779 183.716 27.6019C183.716 28.6179 184.046 29.412 184.707 29.9842C185.368 30.5564 186.217 30.8425 187.253 30.8425Z" fill="white"/>
<path d="M203.113 14.3589L203.215 16.7413C204.628 14.9195 206.474 14.0086 208.752 14.0086C212.66 14.0086 214.631 16.2683 214.666 20.7877V33.3124H211.504V20.7702C211.493 19.4039 211.185 18.3937 210.581 17.7397C209.989 17.0858 209.06 16.7588 207.795 16.7588C206.77 16.7588 205.87 17.0391 205.095 17.5996C204.32 18.1602 203.717 18.8959 203.284 19.8068V33.3124H200.122V14.3589H203.113Z" fill="white"/>
<path d="M226.851 31.0177C227.979 31.0177 228.964 30.6674 229.807 29.9667C230.65 29.266 231.117 28.3901 231.208 27.3391H234.199C234.142 28.4252 233.778 29.4587 233.105 30.4396C232.433 31.4206 231.533 32.203 230.405 32.7869C229.289 33.3708 228.104 33.6628 226.851 33.6628C224.333 33.6628 222.327 32.8044 220.835 31.0878C219.354 29.3594 218.613 27.0004 218.613 24.0109V23.4678C218.613 21.6227 218.944 19.9819 219.604 18.5455C220.265 17.1091 221.211 15.9939 222.441 15.1998C223.683 14.4057 225.147 14.0086 226.833 14.0086C228.907 14.0086 230.627 14.6451 231.995 15.918C233.373 17.1909 234.108 18.8433 234.199 20.8753H231.208C231.117 19.6491 230.662 18.6448 229.841 17.8624C229.032 17.0683 228.03 16.6712 226.833 16.6712C225.227 16.6712 223.979 17.2668 223.091 18.4579C222.214 19.6374 221.775 21.3483 221.775 23.5905V24.2036C221.775 26.3873 222.214 28.069 223.091 29.2485C223.968 30.428 225.221 31.0177 226.851 31.0177Z" fill="white"/>
<path d="M245.427 33.6628C242.921 33.6628 240.881 32.822 239.309 31.1403C237.737 29.447 236.951 27.1873 236.951 24.3612V23.7656C236.951 21.8855 237.298 20.2097 237.993 18.7382C238.7 17.2551 239.679 16.099 240.933 15.2698C242.197 14.429 243.564 14.0086 245.034 14.0086C247.438 14.0086 249.307 14.8202 250.64 16.4435C251.973 18.0667 252.639 20.3907 252.639 23.4153V24.7641H240.112C240.158 26.6326 240.688 28.1449 241.702 29.301C242.727 30.4455 244.026 31.0177 245.598 31.0177C246.715 31.0177 247.66 30.7841 248.435 30.317C249.21 29.8499 249.888 29.231 250.469 28.4602L252.4 30.0017C250.85 32.4424 248.526 33.6628 245.427 33.6628ZM245.034 16.6712C243.758 16.6712 242.687 17.15 241.821 18.1076C240.955 19.0535 240.42 20.3848 240.215 22.1015H249.478V21.8563C249.386 20.2097 248.953 18.9367 248.179 18.0375C247.404 17.1266 246.356 16.6712 245.034 16.6712Z" fill="white"/>
</svg>
