<svg width="28" height="28" viewBox="0 0 28 28" fill="none" xmlns="http://www.w3.org/2000/svg">
<path d="M14 15.7081L28 12.544C27.272 5.48802 21.28 0 14 0C6.72 0 0.728 5.48802 0 12.544L14 15.7081Z" fill="white"/>
<path d="M0.280029 17.0522C0.476029 17.9762 0.784029 18.8722 1.17603 19.7122L14.028 20.5522L26.88 19.7122C27.272 18.8722 27.552 17.9762 27.776 17.0522L14.056 18.1162L0.280029 17.0522Z" fill="white"/>
<path d="M7.13989 26.208C9.18389 27.328 11.5079 28 13.9999 28C16.4919 28 18.8439 27.356 20.8599 26.208H7.13989Z" fill="white"/>
<path d="M13.9998 22.5681L2.57581 22.1761C3.16381 23.0161 3.86381 23.7721 4.61981 24.4441H23.3798C24.1358 23.7721 24.8358 23.0161 25.4238 22.1761L13.9998 22.5681Z" fill="white"/>
</svg>
