<svg width="41" height="41" viewBox="0 0 41 41" fill="none" xmlns="http://www.w3.org/2000/svg">
<path fill-rule="evenodd" clip-rule="evenodd" d="M41 20.5C41 31.8218 31.8218 41 20.5 41C9.17816 41 0 31.8218 0 20.5C0 9.17816 9.17816 0 20.5 0C31.8218 0 41 9.17816 41 20.5ZM31.1696 17.5029C32.824 17.5029 34.1667 18.8456 34.1667 20.5C34.1667 21.7228 33.4234 22.7777 32.4404 23.2573C32.4883 23.545 32.5123 23.8327 32.5123 24.1444C32.5123 28.7479 27.1655 32.4643 20.548 32.4643C13.9304 32.4643 8.58364 28.7479 8.58364 24.1444C8.58364 23.8327 8.60761 23.521 8.65557 23.2333C7.6006 22.7538 6.8813 21.7228 6.8813 20.5C6.8813 18.8456 8.22399 17.5029 9.87837 17.5029C10.6696 17.5029 11.4129 17.8386 11.9404 18.3421C14.0023 16.8315 16.8556 15.8965 20.0445 15.8005L21.555 8.65552C21.6029 8.51166 21.6749 8.39177 21.7947 8.31984C21.9146 8.24791 22.0585 8.22394 22.2024 8.24791L27.1655 9.30288C27.5012 8.58358 28.2205 8.10405 29.0597 8.10405C30.2345 8.10405 31.1936 9.06312 31.1936 10.238C31.1936 11.4128 30.2345 12.3719 29.0597 12.3719C27.9088 12.3719 26.9737 11.4608 26.9257 10.3339L22.4901 9.39879L21.1234 15.8005C24.2404 15.9204 27.0696 16.8795 29.1076 18.3421C29.6351 17.8146 30.3544 17.5029 31.1696 17.5029ZM15.8006 20.5C14.6257 20.5 13.6667 21.459 13.6667 22.6339C13.6667 23.8087 14.6257 24.7678 15.8006 24.7678C16.9755 24.7678 17.9345 23.8087 17.9345 22.6339C17.9345 21.459 16.9755 20.5 15.8006 20.5ZM20.524 29.8269C21.3392 29.8269 24.1205 29.731 25.5831 28.2684C25.7988 28.0526 25.7988 27.7169 25.631 27.4772C25.4152 27.2614 25.0556 27.2614 24.8398 27.4772C23.9047 28.3883 21.9626 28.7239 20.548 28.7239C19.1333 28.7239 17.1673 28.3883 16.2562 27.4772C16.0404 27.2614 15.6807 27.2614 15.4649 27.4772C15.2491 27.6929 15.2491 28.0526 15.4649 28.2684C16.9035 29.707 19.7088 29.8269 20.524 29.8269ZM23.0655 22.6339C23.0655 23.8087 24.0246 24.7678 25.1994 24.7678C26.3743 24.7678 27.3333 23.8087 27.3333 22.6339C27.3333 21.459 26.3743 20.5 25.1994 20.5C24.0246 20.5 23.0655 21.459 23.0655 22.6339Z" fill="white"/>
</svg>
