<svg width="41" height="41" viewBox="0 0 41 41" fill="none" xmlns="http://www.w3.org/2000/svg">
<g clip-path="url(#clip0_25057_306066)">
<path fill-rule="evenodd" clip-rule="evenodd" d="M41 20.5C41 31.8218 31.8218 41 20.5 41C9.17816 41 0 31.8218 0 20.5C0 9.17816 9.17816 0 20.5 0C31.8218 0 41 9.17816 41 20.5ZM21.2346 15.134C19.2407 15.9633 15.2557 17.6799 9.27948 20.2836C8.30905 20.6695 7.80069 21.047 7.75441 21.4162C7.6762 22.0401 8.45746 22.2857 9.52135 22.6202C9.66606 22.6658 9.816 22.7129 9.96973 22.7629C11.0164 23.1031 12.4244 23.5012 13.1564 23.517C13.8203 23.5313 14.5614 23.2576 15.3795 22.6958C20.9632 18.9266 23.8456 17.0215 24.0265 16.9804C24.1542 16.9515 24.3311 16.915 24.451 17.0216C24.5708 17.1281 24.5591 17.3299 24.5464 17.384C24.469 17.7139 21.4022 20.5651 19.8152 22.0405C19.3204 22.5005 18.9695 22.8268 18.8977 22.9013C18.737 23.0682 18.5732 23.2261 18.4158 23.3779C17.4434 24.3153 16.7142 25.0182 18.4562 26.1662C19.2933 26.7178 19.9632 27.174 20.6315 27.6291C21.3613 28.1261 22.0892 28.6219 23.0311 29.2393C23.271 29.3966 23.5002 29.5599 23.7234 29.7191C24.5728 30.3246 25.3359 30.8686 26.2786 30.7818C26.8264 30.7314 27.3922 30.2163 27.6796 28.6801C28.3587 25.0495 29.6936 17.1832 30.0021 13.9417C30.0292 13.6577 29.9952 13.2942 29.9678 13.1346C29.9405 12.9751 29.8835 12.7478 29.6761 12.5795C29.4305 12.3802 29.0513 12.3382 28.8817 12.3411C28.1107 12.3547 26.9277 12.7661 21.2346 15.134Z" fill="white"/>
</g>
<defs>
<clipPath id="clip0_25057_306066">
<rect width="41" height="41" fill="white"/>
</clipPath>
</defs>
</svg>
