<svg width="28" height="28" viewBox="0 0 28 28" fill="none" xmlns="http://www.w3.org/2000/svg">
<path d="M8.80852 25.375C19.372 25.375 25.1513 16.6212 25.1513 9.03222C25.1513 8.78612 25.1459 8.53456 25.1349 8.28847C26.2592 7.47542 27.2294 6.46834 28 5.31456C26.9529 5.78041 25.8412 6.08466 24.7029 6.2169C25.9015 5.49844 26.799 4.36976 27.2289 3.04011C26.1013 3.70836 24.8682 4.17976 23.5823 4.43409C22.716 3.51353 21.5705 2.90401 20.323 2.69977C19.0754 2.49553 17.7954 2.70794 16.6807 3.30416C15.566 3.90038 14.6788 4.8472 14.1562 5.99824C13.6335 7.14928 13.5047 8.44043 13.7895 9.67206C11.5062 9.55748 9.27259 8.96437 7.23331 7.93116C5.19403 6.89795 3.39464 5.44772 1.9518 3.67448C1.21847 4.93883 0.994066 6.43496 1.3242 7.85882C1.65434 9.28267 2.51424 10.5274 3.72914 11.34C2.81707 11.3111 1.92497 11.0655 1.12656 10.6236V10.6947C1.12575 12.0216 1.58445 13.3077 2.42469 14.3346C3.26494 15.3615 4.43488 16.0657 5.73562 16.3275C4.89073 16.5587 4.00398 16.5924 3.14398 16.426C3.51103 17.5671 4.22517 18.5651 5.18673 19.2808C6.1483 19.9964 7.30931 20.3941 8.50773 20.4181C6.47316 22.0163 3.95987 22.8832 1.37266 22.8791C0.913835 22.8784 0.455466 22.8503 0 22.7949C2.62833 24.4811 5.68579 25.3767 8.80852 25.375Z" fill="white"/>
</svg>
