<svg width="42" height="42" viewBox="0 0 42 42" fill="none" xmlns="http://www.w3.org/2000/svg">
<path d="M33.6 12.6H7.34995V11.55L30.45 9.702V11.55H33.6V8.4C33.6 6.09 31.7289 4.4688 29.4441 4.7943L8.35795 7.8057C6.07105 8.1333 4.19995 10.29 4.19995 12.6V33.6C4.19995 34.7139 4.64245 35.7822 5.4301 36.5699C6.21776 37.3575 7.28604 37.8 8.39995 37.8H33.6C34.7139 37.8 35.7821 37.3575 36.5698 36.5699C37.3575 35.7822 37.8 34.7139 37.8 33.6V16.8C37.8 15.6861 37.3575 14.6178 36.5698 13.8302C35.7821 13.0425 34.7139 12.6 33.6 12.6ZM30.45 27.3126C30.0362 27.3125 29.6264 27.2308 29.2442 27.0723C28.8619 26.9139 28.5146 26.6816 28.2221 26.3889C27.9296 26.0962 27.6976 25.7488 27.5394 25.3664C27.3812 24.9841 27.2998 24.5743 27.3 24.1605C27.3001 23.7467 27.3817 23.337 27.5402 22.9547C27.6987 22.5725 27.9309 22.2252 28.2236 21.9327C28.5163 21.6402 28.8638 21.4082 29.2461 21.25C29.6285 21.0917 30.0383 21.0104 30.4521 21.0105C31.2878 21.0108 32.0891 21.343 32.6799 21.9342C33.2706 22.5253 33.6023 23.3269 33.6021 24.1626C33.6018 24.9983 33.2695 25.7997 32.6784 26.3904C32.0873 26.9812 31.2857 27.3129 30.45 27.3126Z" fill="white"/>
</svg>
