<svg width="41" height="41" viewBox="0 0 41 41" fill="none" xmlns="http://www.w3.org/2000/svg">
<path d="M40.5916 12.3001C40.5916 12.3001 40.1912 9.47332 38.958 8.2321C37.3965 6.59851 35.6508 6.5905 34.85 6.49441C29.1164 6.078 20.508 6.078 20.508 6.078H20.492C20.492 6.078 11.8836 6.078 6.15 6.49441C5.34922 6.5905 3.60352 6.59851 2.04199 8.2321C0.808789 9.47332 0.416406 12.3001 0.416406 12.3001C0.416406 12.3001 0 15.6233 0 18.9385V22.0456C0 25.3608 0.408398 28.6841 0.408398 28.6841C0.408398 28.6841 0.808789 31.5108 2.03398 32.752C3.59551 34.3856 5.64551 34.3296 6.5584 34.5057C9.8416 34.818 20.5 34.9141 20.5 34.9141C20.5 34.9141 29.1164 34.8981 34.85 34.4897C35.6508 34.3936 37.3965 34.3856 38.958 32.752C40.1912 31.5108 40.5916 28.6841 40.5916 28.6841C40.5916 28.6841 41 25.3688 41 22.0456V18.9385C41 15.6233 40.5916 12.3001 40.5916 12.3001ZM16.2639 25.8173V14.294L27.3387 20.0757L16.2639 25.8173Z" fill="white"/>
</svg>
